
##       ##    ## ########   ######   
##       ##   ##  ##     ## ##    ##  
##       ##  ##   ##     ## ##        
##       #####    ########  ##   #### 
##       ##  ##   ##   ##   ##    ##  
##       ##   ##  ##    ##  ##    ##  
######## ##    ## ##     ##  ######   


Title: Thomas.and.Friends.Pop.Goes.Thomas.2011.DVDRip Xvid LKRG

Format;AVI

File Size:792mb

Video
ID : 0
Format : MPEG-4 Visual
Format profile : Advanced Simple@L5
Format settings, BVOP : Yes
Format settings, QPel : No
Format settings, GMC : No warppoints
Format settings, Matrix : Custom
Codec ID : XVID
Codec ID/Hint : XviD
Duration : 1h 1mn
Bit rate : 1 483 Kbps
Width : 688 pixels
Height : 398 pixels
Display aspect ratio : 16:9
Frame rate : 29.970 fps
Color space : YUV
Chroma subsampling : 4:2:0
Bit depth : 8 bits
Scan type : Progressive
Bits/(Pixel*Frame) : 0.181
Stream size : 651 MiB (85%)
Writing library : XviD 1.2.1 (UTC 2008-12-04)

Audio
ID : 1
Format : AC-3
Format/Info : Audio Coding 3
Mode extension : CM (complete main)
Codec ID : 2000
Duration : 1h 1mn
Bit rate mode : Constant
Bit rate : 256 Kbps
Channel(s) : 2 channels
Channel positions : Front: L R
Sampling rate : 48.0 KHz
Bit depth : 16 bits
Stream size : 112 MiB (15%)
Alignment : Aligned on interleaves
Interleave, duration : 33 ms (1.00 video frame)
Interleave, preload duration : 512 ms


Duration:1:01

Release Date:2011

Language:English



Featuring the ever-popular Thomas, this collection for children checks in at the Island of Sodor, where Thomas and Percy try to get their work completed while playing an exciting game of hide and seek. The crew also practices with Emily for a football competition, and attends a picnic organized by Mr. Bubbles





================================== 
http://thepiratebay.org/user/hiest
==================================





Screen Shots:
 
http://www.grinshare.com/img/6J9B6G.png
 
http://www.grinshare.com/img/IJCS07.png
 
http://www.grinshare.com/img/YB2EN9.png
 
http://www.grinshare.com/img/V4MUTI.png
 
http://www.grinshare.com/img/PZ0F6F.png


##       ##    ## ########   ######   
##       ##   ##  ##     ## ##    ##  
##       ##  ##   ##     ## ##        
##       #####    ########  ##   #### 
##       ##  ##   ##   ##   ##    ##  
##       ##   ##  ##    ##  ##    ##  
######## ##    ## ##     ##  ######   
